<?xml version="1.0" encoding="UTF-8" standalone="no"?>
<svg
   xmlns:dc="http://purl.org/dc/elements/1.1/"
   xmlns:cc="http://creativecommons.org/ns#"
   xmlns:rdf="http://www.w3.org/1999/02/22-rdf-syntax-ns#"
   xmlns:svg="http://www.w3.org/2000/svg"
   xmlns="http://www.w3.org/2000/svg"
   xmlns:xlink="http://www.w3.org/1999/xlink"
   xmlns:sodipodi="http://sodipodi.sourceforge.net/DTD/sodipodi-0.dtd"
   xmlns:inkscape="http://www.inkscape.org/namespaces/inkscape"
   viewBox="0 0 64 64"
   id="svg2"
   version="1.1"
   inkscape:version="0.91 r13725"
   sodipodi:docname="bookmarks.svg"
   width="64"
   height="64">
  <metadata
     id="metadata28">
    <rdf:RDF>
      <cc:Work
         rdf:about="">
        <dc:format>image/svg+xml</dc:format>
        <dc:type
           rdf:resource="http://purl.org/dc/dcmitype/StillImage" />
        <dc:title></dc:title>
      </cc:Work>
    </rdf:RDF>
  </metadata>
  <sodipodi:namedview
     pagecolor="#ffffff"
     bordercolor="#666666"
     borderopacity="1"
     objecttolerance="10"
     gridtolerance="10"
     guidetolerance="10"
     inkscape:pageopacity="0"
     inkscape:pageshadow="2"
     inkscape:window-width="1908"
     inkscape:window-height="1012"
     id="namedview26"
     showgrid="false"
     inkscape:zoom="4.9166667"
     inkscape:cx="24"
     inkscape:cy="24"
     inkscape:window-x="0"
     inkscape:window-y="0"
     inkscape:window-maximized="0"
     inkscape:current-layer="svg2" />
  <defs
     id="defs4">
    <linearGradient
       id="3"
       x1="-67.120003"
       y1="44.929001"
       x2="-67.529999"
       y2="11.167"
       gradientUnits="userSpaceOnUse"
       gradientTransform="matrix(1.2203527,0,0,1.0690823,113.30309,5.3898043)">
      <stop
         stop-color="#197ff1"
         id="stop7" />
      <stop
         stop-color="#21c6fb"
         offset="1"
         id="stop9" />
    </linearGradient>
    <linearGradient
       gradientTransform="matrix(0.55597917,0,0,0.43377,-109.23981,22.010659)"
       gradientUnits="userSpaceOnUse"
       y2="-40.759998"
       x2="248.03999"
       y1="-6.2360001"
       x1="248.2"
       id="2"
       xlink:href="#1" />
    <linearGradient
       xlink:href="#1"
       id="0"
       x1="-67.059998"
       y1="22.419001"
       x2="-67.190002"
       y2="17.944"
       gradientUnits="userSpaceOnUse"
       gradientTransform="translate(90.51,-0.814)" />
    <linearGradient
       y2="517.77002"
       x2="400.70001"
       y1="546.07001"
       x1="400.51001"
       gradientUnits="userSpaceOnUse"
       id="1">
      <stop
         stop-color="#2e3e46"
         id="stop14" />
      <stop
         stop-color="#435a64"
         offset="1"
         id="stop16" />
    </linearGradient>
    <linearGradient
       gradientUnits="userSpaceOnUse"
       y2="416.19"
       x2="-659.32001"
       y1="588.27002"
       x1="-661.85999"
       id="3-3"
       xlink:href="#1"
       gradientTransform="matrix(0.12614,0,0,0.12614,115.46266,-27.653833)" />
    <linearGradient
       id="2-6"
       x1="-701.19"
       y1="647.77002"
       x2="-704.04999"
       y2="354.29001"
       gradientUnits="userSpaceOnUse"
       gradientTransform="matrix(0.0159113,0,0,0.0159113,106.11769,-105.8063)">
      <stop
         id="stop4168"
         stop-color="#93cfff" />
      <stop
         id="stop4170"
         stop-color="#cde8fe"
         offset="1" />
    </linearGradient>
    <linearGradient
       gradientTransform="matrix(0.52660675,0,0,0.52570737,-40.249033,-37.478171)"
       gradientUnits="userSpaceOnUse"
       y2="-37.783001"
       x2="59.150002"
       y1="-13.295"
       x1="59.119999"
       id="0-7"
       xlink:href="#1-5" />
    <linearGradient
       id="1-5">
      <stop
         id="stop4174"
         stop-color="#289bf7" />
      <stop
         id="stop4176"
         stop-color="#71b9f1"
         offset="1" />
    </linearGradient>
    <linearGradient
       gradientUnits="userSpaceOnUse"
       y2="1025.51"
       x2="-19.996"
       y1="1048.7"
       x1="-19.915"
       id="3-35"
       xlink:href="#1-5" />
    <linearGradient
       id="2-62"
       x1="-701.19"
       y1="647.77"
       x2="-704.05"
       y2="354.29"
       gradientUnits="userSpaceOnUse">
      <stop
         id="stop4277"
         stop-color="#93cfff" />
      <stop
         id="stop4279"
         stop-color="#cde8fe"
         offset="1" />
    </linearGradient>
    <linearGradient
       gradientTransform="matrix(4.17478,0,0,4.16765,-1066.12,447.73)"
       gradientUnits="userSpaceOnUse"
       y2="-37.783"
       x2="59.15"
       y1="-13.295"
       x1="59.12"
       id="0-9"
       xlink:href="#1-5" />
  </defs>
  <path
     inkscape:connector-curvature="0"
     style="color:#000000;fill:url(#2)"
     id="path20"
     d="m 4.3198612,9.224659 c -0.6154752,0 -1.1122422,0.387 -1.1122422,0.868 l 0,35.4 57.855949,0.104 0,-30.381 c 0,-0.481 -0.495477,-0.868 -1.112242,-0.868 l -27.02155,0 c -1.134178,0.078 -1.278691,-0.039 -1.838683,-0.622 -0.794828,-0.829 -1.99352,-3.062 -2.775445,-3.873 -0.627088,-0.708 -0.729021,-0.626 -1.770298,-0.626 z"
     sodipodi:insensitive="true" />
  <rect
     style="fill:url(#3)"
     id="rect22"
     width="58.573273"
     height="37.770679"
     x="2.8489571"
     y="17.141155"
     rx="2.0294466"
     sodipodi:insensitive="true" />
  <path
     inkscape:connector-curvature="0"
     d="m 43.328252,32.762181 -7.240436,-1.061342 -3.245204,-6.616043 c -0.182524,-0.397467 -0.41828,-0.596137 -0.706762,-0.596137 -0.288356,0 -0.523986,0.19867 -0.706763,0.596137 l -3.24533,6.616043 -7.240436,1.061342 c -0.538365,0.08729 -0.807674,0.310178 -0.807674,0.668921 0,0.20359 0.120211,0.436318 0.360634,0.697932 l 5.250073,5.147269 -1.240335,7.270079 c -0.0193,0.135853 -0.02889,0.232854 -0.02889,0.290879 0,0.20359 0.05046,0.375519 0.151368,0.516291 0.100912,0.140646 0.25228,0.21078 0.454231,0.21078 0.173064,0 0.365427,-0.05777 0.576964,-0.174326 l 6.476028,-3.432269 6.476027,3.432269 c 0.202203,0.116301 0.39444,0.174326 0.576712,0.174326 0.192742,0 0.339191,-0.07001 0.440103,-0.21078 0.100786,-0.140646 0.151242,-0.312701 0.151242,-0.516291 0,-0.126014 -0.0048,-0.22289 -0.01451,-0.290879 l -1.24046,-7.270079 5.235567,-5.147269 c 0.250387,-0.252027 0.37514,-0.484756 0.37514,-0.697932 0,-0.358743 -0.269057,-0.581632 -0.807927,-0.668921"
     id="path4184"
     style="fill:url(#3-3);fill-opacity:1" />
</svg>
