<?xml version="1.0" encoding="UTF-8" standalone="no"?>
<svg
   xmlns:dc="http://purl.org/dc/elements/1.1/"
   xmlns:cc="http://creativecommons.org/ns#"
   xmlns:rdf="http://www.w3.org/1999/02/22-rdf-syntax-ns#"
   xmlns:svg="http://www.w3.org/2000/svg"
   xmlns="http://www.w3.org/2000/svg"
   xmlns:xlink="http://www.w3.org/1999/xlink"
   xmlns:sodipodi="http://sodipodi.sourceforge.net/DTD/sodipodi-0.dtd"
   xmlns:inkscape="http://www.inkscape.org/namespaces/inkscape"
   viewBox="0 0 64 64"
   id="svg2"
   version="1.1"
   inkscape:version="0.91 r13725"
   sodipodi:docname="folder-private.svg"
   width="64"
   height="64">
  <metadata
     id="metadata28">
    <rdf:RDF>
      <cc:Work
         rdf:about="">
        <dc:format>image/svg+xml</dc:format>
        <dc:type
           rdf:resource="http://purl.org/dc/dcmitype/StillImage" />
        <dc:title></dc:title>
      </cc:Work>
    </rdf:RDF>
  </metadata>
  <sodipodi:namedview
     pagecolor="#ffffff"
     bordercolor="#666666"
     borderopacity="1"
     objecttolerance="10"
     gridtolerance="10"
     guidetolerance="10"
     inkscape:pageopacity="0"
     inkscape:pageshadow="2"
     inkscape:window-width="1908"
     inkscape:window-height="1012"
     id="namedview26"
     showgrid="false"
     inkscape:zoom="4.9166667"
     inkscape:cx="-7.4237284"
     inkscape:cy="16.067797"
     inkscape:window-x="-13"
     inkscape:window-y="0"
     inkscape:window-maximized="0"
     inkscape:current-layer="g4679" />
  <defs
     id="defs4">
    <linearGradient
       id="3"
       x1="-67.120003"
       y1="44.929001"
       x2="-67.529999"
       y2="11.167"
       gradientUnits="userSpaceOnUse"
       gradientTransform="matrix(1.2203527,0,0,1.0690823,113.30309,5.3898043)">
      <stop
         stop-color="#197ff1"
         id="stop7" />
      <stop
         stop-color="#21c6fb"
         offset="1"
         id="stop9" />
    </linearGradient>
    <linearGradient
       gradientTransform="matrix(0.55597917,0,0,0.43377,-109.23981,22.010659)"
       gradientUnits="userSpaceOnUse"
       y2="-40.759998"
       x2="248.03999"
       y1="-6.2360001"
       x1="248.2"
       id="2"
       xlink:href="#1" />
    <linearGradient
       xlink:href="#1"
       id="0"
       x1="-67.059998"
       y1="22.419001"
       x2="-67.190002"
       y2="17.944"
       gradientUnits="userSpaceOnUse"
       gradientTransform="translate(90.51,-0.814)" />
    <linearGradient
       y2="517.77002"
       x2="400.70001"
       y1="546.07001"
       x1="400.51001"
       gradientUnits="userSpaceOnUse"
       id="1">
      <stop
         stop-color="#2e3e46"
         id="stop14" />
      <stop
         stop-color="#435a64"
         offset="1"
         id="stop16" />
    </linearGradient>
    <linearGradient
       gradientUnits="userSpaceOnUse"
       y2="416.19"
       x2="-659.32001"
       y1="588.27002"
       x1="-661.85999"
       id="3-3"
       xlink:href="#1"
       gradientTransform="matrix(0.12614,0,0,0.12614,115.46266,-27.653833)" />
    <linearGradient
       id="2-6"
       x1="-701.19"
       y1="647.77002"
       x2="-704.04999"
       y2="354.29001"
       gradientUnits="userSpaceOnUse"
       gradientTransform="matrix(0.0159113,0,0,0.0159113,106.11769,-105.8063)">
      <stop
         id="stop4168"
         stop-color="#93cfff" />
      <stop
         id="stop4170"
         stop-color="#cde8fe"
         offset="1" />
    </linearGradient>
    <linearGradient
       gradientTransform="matrix(0.52660675,0,0,0.52570737,-40.249033,-37.478171)"
       gradientUnits="userSpaceOnUse"
       y2="-37.783001"
       x2="59.150002"
       y1="-13.295"
       x1="59.119999"
       id="0-7"
       xlink:href="#1-5" />
    <linearGradient
       id="1-5">
      <stop
         id="stop4174"
         stop-color="#289bf7" />
      <stop
         id="stop4176"
         stop-color="#71b9f1"
         offset="1" />
    </linearGradient>
    <linearGradient
       gradientUnits="userSpaceOnUse"
       y2="1025.51"
       x2="-19.996"
       y1="1048.7"
       x1="-19.915"
       id="3-35"
       xlink:href="#1-5" />
    <linearGradient
       id="2-62"
       x1="-701.19"
       y1="647.77"
       x2="-704.05"
       y2="354.29"
       gradientUnits="userSpaceOnUse"
       gradientTransform="matrix(0.0159113,0,0,0.0159113,208.73004,-53.431242)">
      <stop
         id="stop4277"
         stop-color="#93cfff" />
      <stop
         id="stop4279"
         stop-color="#cde8fe"
         offset="1" />
    </linearGradient>
    <linearGradient
       gradientTransform="matrix(0.52660675,0,0,0.52570737,50.869613,9.0303042)"
       gradientUnits="userSpaceOnUse"
       y2="-37.783"
       x2="59.15"
       y1="-13.295"
       x1="59.12"
       id="0-9"
       xlink:href="#1-5" />
    <linearGradient
       gradientUnits="userSpaceOnUse"
       y2="1025.51"
       x2="-19.996"
       y1="1048.7"
       x1="-19.915001"
       id="3-2"
       xlink:href="#1"
       gradientTransform="translate(52.091593,-1001.2797)" />
    <linearGradient
       id="2-7"
       x1="-701.19"
       y1="647.77"
       x2="-704.05"
       y2="354.29"
       gradientUnits="userSpaceOnUse"
       gradientTransform="matrix(0.0159113,0,0,0.0159113,235.06068,-67.971199)">
      <stop
         id="stop4448"
         stop-color="#93cfff" />
      <stop
         id="stop4450"
         stop-color="#cde8fe"
         offset="1" />
    </linearGradient>
    <linearGradient
       gradientTransform="matrix(0.52660675,0,0,0.52570737,43.547573,-11.105338)"
       gradientUnits="userSpaceOnUse"
       y2="-37.783"
       x2="59.15"
       y1="-13.295"
       x1="59.12"
       id="0-0"
       xlink:href="#1-5" />
    <linearGradient
       gradientUnits="userSpaceOnUse"
       y2="290.14001"
       x2="-422.39001"
       y1="447.89001"
       x1="-423.69"
       id="3-36"
       xlink:href="#1"
       gradientTransform="matrix(0.12614,0,0,0.12614,85.647146,-10.562503)" />
    <linearGradient
       id="2-0"
       x1="-701.19"
       y1="647.77"
       x2="-704.05"
       y2="354.29"
       gradientUnits="userSpaceOnUse"
       gradientTransform="matrix(0.0159113,0,0,0.0159113,7.3991083,-66.257786)">
      <stop
         id="stop4535"
         stop-color="#93cfff" />
      <stop
         id="stop4537"
         stop-color="#cde8fe"
         offset="1" />
    </linearGradient>
    <linearGradient
       gradientTransform="matrix(0.52660675,0,0,0.52570737,-127.91005,-2.3595268)"
       gradientUnits="userSpaceOnUse"
       y2="-37.783"
       x2="59.15"
       y1="-13.295"
       x1="59.12"
       id="0-6"
       xlink:href="#1-5" />
    <linearGradient
       gradientUnits="userSpaceOnUse"
       y2="268.01001"
       x2="-429.69"
       y1="455.73999"
       x1="-429.17999"
       id="3-6"
       xlink:href="#1"
       gradientTransform="matrix(0.12614,0,0,0.12614,85.647461,-9.742639)" />
    <linearGradient
       gradientUnits="userSpaceOnUse"
       y2="276.04999"
       x2="-425.09"
       y1="459.85999"
       x1="-424.64999"
       id="3-33"
       xlink:href="#1"
       gradientTransform="matrix(0.12614,0,0,0.12614,86.460898,-10.227276)" />
    <linearGradient
       id="2-3"
       x1="-701.19"
       y1="647.77"
       x2="-704.05"
       y2="354.29"
       gradientUnits="userSpaceOnUse"
       gradientTransform="matrix(0.0159113,0,0,0.0159113,50.917739,-17.929201)">
      <stop
         id="stop4330"
         stop-color="#93cfff" />
      <stop
         id="stop4332"
         stop-color="#cde8fe"
         offset="1" />
    </linearGradient>
    <linearGradient
       gradientTransform="matrix(0.52660675,0,0,0.52570737,-89.265982,40.555728)"
       gradientUnits="userSpaceOnUse"
       y2="-37.783"
       x2="59.15"
       y1="-13.295"
       x1="59.12"
       id="0-8"
       xlink:href="#1-5" />
    <linearGradient
       xlink:href="#1"
       id="3-4"
       y1="22.120001"
       x2="0"
       y2="-27.875"
       gradientUnits="userSpaceOnUse"
       gradientTransform="matrix(0.54165,0,0,0.54166,-4.3572626,37.081242)" />
    <linearGradient
       id="2-76"
       x1="-701.19"
       y1="647.77"
       x2="-704.05"
       y2="354.29"
       gradientUnits="userSpaceOnUse"
       gradientTransform="matrix(0.01591116,0,0,0.01591038,51.604443,11.161472)">
      <stop
         id="stop4417"
         stop-color="#93cfff" />
      <stop
         id="stop4419"
         stop-color="#cde8fe"
         offset="1" />
    </linearGradient>
    <linearGradient
       gradientTransform="matrix(0.52660445,0,0,0.5256922,-88.655587,66.38633)"
       gradientUnits="userSpaceOnUse"
       y2="-37.783"
       x2="59.15"
       y1="-13.295"
       x1="59.12"
       id="1-0"
       xlink:href="#1-5" />
    <linearGradient
       id="4"
       x1="-701.19"
       y1="647.77"
       x2="-704.05"
       y2="354.29"
       gradientUnits="userSpaceOnUse"
       gradientTransform="matrix(0.0159112,0,0,0.0159112,48.397921,-43.123965)">
      <stop
         id="stop4575"
         stop-color="#93cfff" />
      <stop
         id="stop4577"
         stop-color="#cde8fe"
         offset="1" />
    </linearGradient>
    <linearGradient
       y2="493.92999"
       x2="542.13"
       y1="540.47998"
       x1="540.82001"
       gradientUnits="userSpaceOnUse"
       id="5"
       xlink:href="#1"
       gradientTransform="matrix(0.25328069,0,0,0.25328069,-325.98739,-331.14874)" />
    <linearGradient
       gradientTransform="matrix(0.52660504,0,0,0.52570566,-91.5031,18.182856)"
       gradientUnits="userSpaceOnUse"
       y2="-37.783"
       x2="59.15"
       y1="-13.295"
       x1="59.12"
       id="3-68"
       xlink:href="#1-5" />
    <linearGradient
       gradientUnits="userSpaceOnUse"
       y2="501.29"
       x2="408.62"
       y1="547.03"
       x1="407.33"
       id="0-90"
       xlink:href="#1-5" />
    <linearGradient
       gradientUnits="userSpaceOnUse"
       y2="523.51"
       x2="432.47"
       y1="547.03"
       x1="407.33"
       id="2-33"
       xlink:href="#1-5" />
    <linearGradient
       gradientUnits="userSpaceOnUse"
       y2="31.120001"
       x2="310.67001"
       y1="147.19"
       x1="315.51999"
       id="3-37"
       xlink:href="#1"
       gradientTransform="translate(345.72038,50.752341)" />
    <linearGradient
       id="2-32"
       x1="-701.19"
       y1="647.77"
       x2="-704.05"
       y2="354.29"
       gradientUnits="userSpaceOnUse">
      <stop
         id="stop4669"
         stop-color="#93cfff" />
      <stop
         id="stop4671"
         stop-color="#cde8fe"
         offset="1" />
    </linearGradient>
    <linearGradient
       gradientTransform="matrix(2.5286025,0,0,2.5242839,56.157555,124.55401)"
       gradientUnits="userSpaceOnUse"
       y2="-37.783"
       x2="59.15"
       y1="-13.295"
       x1="59.12"
       id="0-65"
       xlink:href="#1-5" />
    <linearGradient
       gradientUnits="userSpaceOnUse"
       y2="268.39999"
       x2="-429.45999"
       y1="461.35001"
       x1="-421.57999"
       id="3-9"
       xlink:href="#1"
       gradientTransform="matrix(0.6056852,0,0,0.6056852,916.54147,-80.700192)" />
    <linearGradient
       id="2-60"
       x1="-701.19"
       y1="647.77"
       x2="-704.05"
       y2="354.29"
       gradientUnits="userSpaceOnUse"
       gradientTransform="matrix(0.36685456,0,0,0.36685456,1127.0154,-235.44069)">
      <stop
         id="stop4753"
         stop-color="#93cfff" />
      <stop
         id="stop4755"
         stop-color="#cde8fe"
         offset="1" />
    </linearGradient>
    <linearGradient
       gradientUnits="userSpaceOnUse"
       y2="273.82001"
       x2="-418.26001"
       y1="451.12"
       x1="-405.97"
       id="3-0"
       xlink:href="#1"
       gradientTransform="matrix(0.6056852,0,0,0.6056852,916.5461,-76.319177)" />
    <linearGradient
       id="2-4"
       x1="-701.19"
       y1="647.77"
       x2="-704.05"
       y2="354.29"
       gradientUnits="userSpaceOnUse"
       gradientTransform="matrix(0.36685456,0,0,0.36685456,2202.757,-323.2563)">
      <stop
         id="stop4839"
         stop-color="#93cfff" />
      <stop
         id="stop4841"
         stop-color="#cde8fe"
         offset="1" />
    </linearGradient>
    <linearGradient
       gradientTransform="matrix(2.5286025,0,0,2.5242839,726.11549,69.863585)"
       gradientUnits="userSpaceOnUse"
       y2="-37.783"
       x2="59.15"
       y1="-13.295"
       x1="59.12"
       id="0-87"
       xlink:href="#1-5" />
    <linearGradient
       gradientUnits="userSpaceOnUse"
       y2="-19.476"
       x2="167.7"
       y1="26.964001"
       x1="167.58"
       id="3-62"
       xlink:href="#1"
       gradientTransform="matrix(2.3633919,0,0,2.3633919,264.98248,131.83942)" />
    <linearGradient
       id="2-47"
       x1="-701.19"
       y1="647.77"
       x2="-704.05"
       y2="354.29"
       gradientUnits="userSpaceOnUse"
       gradientTransform="matrix(0.36686047,0,0,0.36686047,1051.7533,70.342362)">
      <stop
         id="stop5104"
         stop-color="#93cfff" />
      <stop
         id="stop5106"
         stop-color="#cde8fe"
         offset="1" />
    </linearGradient>
    <linearGradient
       gradientTransform="matrix(2.5286228,0,0,2.5243043,9.2780419,314.9938)"
       gradientUnits="userSpaceOnUse"
       y2="-37.783"
       x2="59.15"
       y1="-13.295"
       x1="59.12"
       id="0-93"
       xlink:href="#1-5" />
    <linearGradient
       gradientUnits="userSpaceOnUse"
       y2="36.922001"
       x2="68.400002"
       y1="52.049999"
       x1="68.75"
       id="3-28"
       xlink:href="#1"
       gradientTransform="matrix(7.2025114,0,0,7.2025114,166.86743,-180.11445)" />
    <linearGradient
       id="2-30"
       x1="-701.19"
       y1="647.77"
       x2="-704.05"
       y2="354.29"
       gradientUnits="userSpaceOnUse"
       gradientTransform="matrix(0.36683551,0,0,0.36683551,1086.2167,-42.547548)">
      <stop
         id="stop5408"
         stop-color="#93cfff" />
      <stop
         id="stop5410"
         stop-color="#cde8fe"
         offset="1" />
    </linearGradient>
    <linearGradient
       gradientTransform="matrix(2.5285368,0,0,2.5242184,30.772025,244.67807)"
       gradientUnits="userSpaceOnUse"
       y2="-37.783"
       x2="59.15"
       y1="-13.295"
       x1="59.12"
       id="0-1"
       xlink:href="#1-5" />
    <clipPath
       id="clipPath5493">
      <path
         id="path5495"
         d="m596.51 511.71c-7.452 6.109-22.261 15.989-32.626 11.818-5.793-2.332-8.254-7.974-1.48-7.577 13.816.809 20.506 2.306 34.11-4.241" />
    </clipPath>
    <clipPath
       id="clipPath5497">
      <path
         id="path5499"
         d="m548.84 543.24h11.247v-38.495h-11.247v38.495" />
    </clipPath>
    <clipPath
       id="8">
      <path
         id="path5502"
         d="m547.05 542.87h13.05v-38.14h-13.05v38.14" />
    </clipPath>
    <clipPath
       id="clipPath5504">
      <path
         id="path5506"
         d="m556.74 544.61h28.84v-27.979h-28.84v27.979" />
    </clipPath>
    <clipPath
       id="7">
      <path
         id="path5509"
         d="m556.75 516.63c2.252 9.368 8.092 26.19 18.874 29.12 6.02 1.639 11.393-1.373 5.753-5.147-11.502-7.696-17.738-10.542-24.627-23.971" />
    </clipPath>
    <clipPath
       id="clipPath5511">
      <path
         id="path5513"
         d="m558.32 524.53h38.19v-12.815h-38.19v12.815" />
    </clipPath>
    <clipPath
       id="6">
      <path
         id="path5516"
         d="m556.75 546.2h27.01v-29.575h-27.01v29.575" />
    </clipPath>
    <clipPath
       id="5-8">
      <path
         id="path5519"
         d="m596.5 511.72c-6.962 6.661-20.973 17.643-31.626 14.277-5.954-1.882-8.839-7.319-2.055-7.441 13.837-.25 20.622.731 33.681-6.836" />
    </clipPath>
    <clipPath
       id="4-9">
      <path
         id="path5522"
         d="m558.89 526.62h37.604v-14.904h-37.604v14.904" />
    </clipPath>
    <clipPath
       id="3-1">
      <path
         id="path5525"
         d="m0 792h612v-792h-612v792" />
    </clipPath>
    <linearGradient
       gradientUnits="userSpaceOnUse"
       y2="546.67"
       x2="560.09"
       y1="505.95"
       x1="559.17"
       id="9"
       xlink:href="#1-5" />
    <linearGradient
       gradientUnits="userSpaceOnUse"
       y2="546.41"
       x2="562.67"
       y1="504.57"
       x1="562.35"
       id="A"
       xlink:href="#1-5" />
    <linearGradient
       gradientTransform="matrix(2.5286308,0,0,2.5243123,49.318475,206.58949)"
       gradientUnits="userSpaceOnUse"
       y2="-37.783"
       x2="59.15"
       y1="-13.295"
       x1="59.12"
       id="0-5"
       xlink:href="#1-5" />
    <linearGradient
       id="1-2"
       x1="-701.19"
       y1="647.77"
       x2="-704.05"
       y2="354.29"
       gradientUnits="userSpaceOnUse">
      <stop
         id="stop5536"
         stop-color="#93cfff" />
      <stop
         id="stop5538"
         stop-color="#cde8fe"
         offset="1" />
    </linearGradient>
    <linearGradient
       gradientUnits="userSpaceOnUse"
       y2="548.15"
       x2="564"
       y1="506.51"
       x1="564.19"
       id="B"
       xlink:href="#1-5" />
    <linearGradient
       gradientUnits="userSpaceOnUse"
       y2="642.52002"
       x2="326.06"
       y1="813.44"
       x1="324.38"
       id="3-5"
       xlink:href="#1"
       gradientTransform="matrix(0.67910304,0,0,0.67910304,441.10699,-350.51612)" />
    <linearGradient
       id="2-74"
       x1="-701.19"
       y1="647.77"
       x2="-704.05"
       y2="354.29"
       gradientUnits="userSpaceOnUse"
       gradientTransform="matrix(0.3668628,0,0,0.3668628,1116.0504,-103.72287)">
      <stop
         id="stop5754"
         stop-color="#93cfff" />
      <stop
         id="stop5756"
         stop-color="#cde8fe"
         offset="1" />
    </linearGradient>
    <linearGradient
       gradientUnits="userSpaceOnUse"
       y2="268.69"
       x2="77.529999"
       y1="470.48999"
       x1="71.459999"
       id="3-59"
       xlink:href="#1"
       gradientTransform="matrix(0.59084798,0,0,0.59084798,618.35024,-76.097072)" />
    <linearGradient
       id="2-35"
       x1="-701.19"
       y1="647.77"
       x2="-704.05"
       y2="354.29"
       gradientUnits="userSpaceOnUse"
       gradientTransform="matrix(0.36686047,0,0,0.36686047,1090.9568,-120.97083)">
      <stop
         id="stop5840"
         stop-color="#93cfff" />
      <stop
         id="stop5842"
         stop-color="#cde8fe"
         offset="1" />
    </linearGradient>
    <linearGradient
       gradientTransform="matrix(2.5286228,0,0,2.5243043,33.693422,195.84678)"
       gradientUnits="userSpaceOnUse"
       y2="-37.783"
       x2="59.15"
       y1="-13.295"
       x1="59.12"
       id="0-70"
       xlink:href="#1-5" />
    <linearGradient
       gradientUnits="userSpaceOnUse"
       y2="11.273"
       x2="-9.1639996"
       y1="24"
       x1="-9"
       id="3-19"
       xlink:href="#1"
       gradientTransform="matrix(9.6034417,0,0,9.6034417,742.44811,-37.171546)" />
    <linearGradient
       id="2-9"
       x1="-701.19"
       y1="647.77"
       x2="-704.05"
       y2="354.29"
       gradientUnits="userSpaceOnUse">
      <stop
         id="stop5974"
         stop-color="#93cfff" />
      <stop
         id="stop5976"
         stop-color="#cde8fe"
         offset="1" />
    </linearGradient>
    <linearGradient
       gradientTransform="matrix(4.17478,0,0,4.16765,-1066.12,447.73)"
       gradientUnits="userSpaceOnUse"
       y2="-37.783"
       x2="59.15"
       y1="-13.295"
       x1="59.12"
       id="0-78"
       xlink:href="#1-5" />
    <linearGradient
       gradientUnits="userSpaceOnUse"
       y2="268.14999"
       x2="82.924004"
       y1="468.95001"
       x1="90.089996"
       id="3-34"
       xlink:href="#1"
       gradientTransform="matrix(0.57836358,0,0,0.57836358,609.84642,-73.181058)" />
    <linearGradient
       id="2-90"
       x1="-701.19"
       y1="647.77"
       x2="-704.05"
       y2="354.29"
       gradientUnits="userSpaceOnUse"
       gradientTransform="matrix(0.36683387,0,0,0.36683387,1139.5303,-213.47152)">
      <stop
         id="stop6067"
         stop-color="#93cfff" />
      <stop
         id="stop6069"
         stop-color="#cde8fe"
         offset="1" />
    </linearGradient>
    <linearGradient
       gradientTransform="matrix(2.5285312,0,0,2.5242127,63.977434,138.22707)"
       gradientUnits="userSpaceOnUse"
       y2="-37.783"
       x2="59.15"
       y1="-13.295"
       x1="59.12"
       id="0-2"
       xlink:href="#1-5" />
  </defs>
  <path
     inkscape:connector-curvature="0"
     style="color:#000000;fill:url(#2)"
     id="path20"
     d="m 4.3198612,9.224659 c -0.6154752,0 -1.1122422,0.387 -1.1122422,0.868 l 0,35.4 57.855949,0.104 0,-30.381 c 0,-0.481 -0.495477,-0.868 -1.112242,-0.868 l -27.02155,0 c -1.134178,0.078 -1.278691,-0.039 -1.838683,-0.622 -0.794828,-0.829 -1.99352,-3.062 -2.775445,-3.873 -0.627088,-0.708 -0.729021,-0.626 -1.770298,-0.626 z"
     sodipodi:insensitive="true" />
  <rect
     style="fill:url(#3)"
     id="rect22"
     width="58.573273"
     height="37.770679"
     x="2.8489571"
     y="17.141155"
     rx="2.0294466"
     sodipodi:insensitive="true" />
  <g
     id="g4679"
     transform="matrix(0.20826,0,0,0.20826,-105.23254,6.6839052)"
     style="fill:#60aae5">
    <path
       inkscape:connector-curvature="0"
       d="m 602.5145,110.59397 c 1.7137,1.54597 3.94618,2.39732 6.2845,2.39732 1.4945,0 2.97684,-0.3609 4.28857,-1.04221 0.4812,-0.25043 0.9462,-0.54655 1.38287,-0.88085 l 2.66567,-2.04451 7.12544,6.6558 c 0.1845,0.17236 0.42741,0.26721 0.67669,0.26721 0.0318,0 0.063,0 0.0943,-0.005 0.28282,-0.0278 0.54019,-0.17409 0.70734,-0.4037 1.79756,-2.46845 3.92304,-4.74316 6.31689,-6.75991 0.21688,-0.18276 0.34528,-0.44881 0.3528,-0.73279 0.009,-0.28397 -0.10758,-0.55696 -0.31405,-0.75013 l -7.29432,-6.81255 1.69634,-2.763424 c 2.35972,-3.84265 1.64081,-8.82583 -1.71022,-11.84893 -1.71369,-1.54481 -3.94676,-2.39501 -6.28682,-2.39501 -1.49622,0 -2.97857,0.35974 -4.28856,1.04163 -0.99132,0.51475 -1.87737,1.20127 -2.63503,2.04221 -1.21629,1.34874 -2.00518,3.01443 -2.28164,4.81487 l -0.39502,2.57603 -2.51993,0.6605 c -1.75996,0.46095 -3.33427,1.42046 -4.55519,2.77498 -1.67148,1.85597 -2.52167,4.251564 -2.39096,6.747194 0.12955,2.49275 1.22382,4.7877 3.08036,6.4609 m 31.91411,59.62929 0,-7.24343 c 0,-0.27067 -0.11047,-0.52978 -0.30654,-0.71717 -0.19606,-0.18739 -0.4569,-0.28629 -0.72931,-0.27414 -0.73568,0.0318 -1.465,-0.0856 -2.15672,-0.35107 -0.35338,-0.13534 -0.75476,-0.0584 -1.0318,0.20012 l -12.11845,11.32088 -2.6651,-2.04162 c -0.44014,-0.33719 -0.90572,-0.63446 -1.38229,-0.882 -1.31289,-0.68247 -2.79755,-1.04337 -4.29377,-1.04337 -2.33659,0 -4.56792,0.85019 -6.2793,2.39442 -1.8577,1.67321 -2.95138,3.96873 -3.08036,6.46322 -0.13071,2.49564 0.71948,4.89411 2.39385,6.7547 1.21687,1.35164 2.79002,2.30825 4.54825,2.76632 l 2.52571,0.65818 0.39502,2.58123 c 0.27531,1.79698 1.06477,3.46382 2.2857,4.82066 0.7536,0.83689 1.63966,1.52226 2.63155,2.03816 1.31115,0.68189 2.79465,1.04163 4.28972,1.04163 2.33659,0 4.56908,-0.8502 6.28045,-2.39443 1.85655,-1.67378 2.95139,-3.97046 3.08384,-6.46842 0.0995,-1.90686 -0.37305,-3.76572 -1.36552,-5.37531 l -1.70733,-2.76515 8.71016,-8.13758 c 0.26662,-0.24869 0.37478,-0.62405 0.28224,-0.97685 -0.20474,-0.77964 -0.30885,-1.5772 -0.30885,-2.37072 m 82.94312,-72.839114 c -1.22034,-1.35452 -2.79523,-2.31345 -4.55461,-2.77498 l -2.52051,-0.6605 -0.39502,-2.57603 c -0.27646,-1.80102 -1.06592,-3.46613 -2.28164,-4.81487 -0.75824,-0.84094 -1.64429,-1.52804 -2.63503,-2.04221 -1.30999,-0.68189 -2.79234,-1.04163 -4.28799,-1.04163 -2.34063,0 -4.57312,0.8502 -6.28681,2.39501 -3.35104,3.0231 -4.07168,8.00686 -1.71022,11.84893 l 1.69634,2.763424 -7.29316,6.8137 c -0.20764,0.19375 -0.32215,0.46674 -0.31463,0.75072 0.009,0.28398 0.13533,0.5506 0.3528,0.73279 2.39442,2.01675 4.51991,4.29087 6.31689,6.75933 0.16656,0.23019 0.42509,0.37594 0.70676,0.4037 0.0318,0.005 0.063,0.005 0.0943,0.005 0.24985,0 0.49219,-0.0943 0.67668,-0.26663 l 7.12544,-6.65581 2.66568,2.04452 c 0.43667,0.33487 0.90167,0.63099 1.38287,0.88084 1.31115,0.68189 2.79407,1.04222 4.28857,1.04222 2.33658,0 4.57022,-0.85136 6.28449,-2.39732 1.85655,-1.67321 2.95081,-3.96815 3.08037,-6.46148 0.12955,-2.4968 -0.71949,-4.892384 -2.39096,-6.747774 m -1.64255,74.204054 c -1.71138,-1.54365 -3.94155,-2.39443 -6.27929,-2.39443 -1.49623,0 -2.98089,0.3609 -4.29377,1.04337 -0.47715,0.24754 -0.94274,0.54482 -1.38229,0.88201 l -2.66568,2.04162 -12.1173,-11.32031 c -0.27761,-0.25911 -0.67899,-0.33661 -1.03237,-0.20011 -0.69173,0.26489 -1.42047,0.38519 -2.15672,0.35106 -0.27299,-0.0139 -0.53383,0.0873 -0.72932,0.27357 -0.19606,0.18681 -0.30653,0.44592 -0.30653,0.71717 l 0,7.24343 c 0,0.79351 -0.10353,1.5905 -0.30827,2.37071 -0.0925,0.3528 0.0185,0.72758 0.28224,0.97685 l 8.71016,8.13758 -1.70733,2.76516 c -0.99305,1.60842 -1.465,3.46786 -1.36552,5.37531 0.13187,2.49795 1.22729,4.79463 3.08384,6.46842 1.71195,1.54423 3.94154,2.39442 6.28045,2.39442 1.49507,0 2.97857,-0.35974 4.28972,-1.04163 0.99247,-0.51648 1.87737,-1.20126 2.63097,-2.03816 1.22035,-1.35684 2.0104,-3.0231 2.2857,-4.82066 l 0.39444,-2.58123 2.52572,-0.65818 c 1.75822,-0.45806 3.33137,-1.41526 4.54825,-2.76631 1.67436,-1.86118 2.52398,-4.25907 2.39384,-6.75471 -0.12897,-2.49448 -1.22266,-4.79001 -3.08036,-6.46379 m -30.33517,-13.57073 c 0.41931,0.0607 0.84325,-0.0815 1.14053,-0.38345 5.93228,-6.01325 9.1983,-13.75811 9.1983,-21.80604 0,-17.96976 -16.14213,-32.63128 -36.13616,-32.98408 -19.99229,0.35512 -36.13616,15.01374 -36.13616,32.98408 0,8.04793 3.2666,15.79337 9.19772,21.80604 0.29786,0.3019 0.72064,0.4436 1.14111,0.38345 0.41931,-0.0607 0.78484,-0.31752 0.98553,-0.69114 l 3.24694,-6.06241 c 0.0943,-0.17756 0.30306,-0.27009 0.50086,-0.22151 0.1978,0.0497 0.33603,0.22672 0.33603,0.43146 l 0,18.75286 c 0,2.09946 1.21456,4.06011 3.09598,4.99012 3.63964,1.79582 9.59331,3.91957 17.63026,4.122 8.03694,-0.20243 13.99061,-2.32502 17.63025,-4.122 1.88142,-0.93232 3.09598,-2.89066 3.09598,-4.99012 l 0,-18.75286 c 0,-0.20474 0.13823,-0.38172 0.33719,-0.43146 0.1978,-0.0486 0.40601,0.0457 0.50086,0.22151 l 3.24693,6.06241 c 0.20012,0.37362 0.56622,0.63099 0.98554,0.69172 m -38.10954,-13.64012 c -5.06993,0 -9.19482,-4.90511 -9.19482,-10.93397 0,-1.38634 1.12896,-2.51414 2.51646,-2.51414 l 13.34863,0 c 1.38865,0 2.51993,1.13127 2.52167,2.52571 -10e-4,6.02134 -4.12489,10.9224 -9.19309,10.9224 m 18.59439,12.20925 -2.57141,2.2186 c -0.13534,0.11683 -0.33776,0.14055 -0.49681,0.0567 l -2.76632,-1.45111 c -0.36321,-0.1897 -0.5292,-0.1897 -0.89241,0 l -2.76631,1.45111 c -0.15905,0.0827 -0.36206,0.0596 -0.49682,-0.0567 l -2.5714,-2.2186 c -0.18566,-0.16021 -0.20706,-0.44129 -0.0463,-0.62752 l 5.0734,-5.89122 c 0.75997,-0.88605 1.74666,-0.88605 2.50779,0 l 5.0734,5.89122 c 0.16079,0.18623 0.13939,0.46731 -0.0457,0.62752 m 6.03233,-12.20925 c -5.06762,0 -9.19251,-4.90106 -9.19308,-10.9224 0.002,-1.39444 1.13243,-2.52571 2.52166,-2.52571 l 13.34863,0 c 1.38807,0 2.51646,1.1278 2.51646,2.51414 0,6.02886 -4.12431,10.93454 -9.19424,10.93454"
       id="path6083"
       style="fill:url(#3-34);fill-opacity:1" />
  </g>
</svg>
