<?xml version="1.0" encoding="UTF-8" standalone="no"?>
<svg
   xmlns:dc="http://purl.org/dc/elements/1.1/"
   xmlns:cc="http://creativecommons.org/ns#"
   xmlns:rdf="http://www.w3.org/1999/02/22-rdf-syntax-ns#"
   xmlns:svg="http://www.w3.org/2000/svg"
   xmlns="http://www.w3.org/2000/svg"
   xmlns:xlink="http://www.w3.org/1999/xlink"
   xmlns:sodipodi="http://sodipodi.sourceforge.net/DTD/sodipodi-0.dtd"
   xmlns:inkscape="http://www.inkscape.org/namespaces/inkscape"
   viewBox="0 0 64 64"
   id="svg2"
   version="1.1"
   inkscape:version="0.91 r13725"
   sodipodi:docname="folder-image.svg"
   width="64"
   height="64">
  <metadata
     id="metadata28">
    <rdf:RDF>
      <cc:Work
         rdf:about="">
        <dc:format>image/svg+xml</dc:format>
        <dc:type
           rdf:resource="http://purl.org/dc/dcmitype/StillImage" />
        <dc:title></dc:title>
      </cc:Work>
    </rdf:RDF>
  </metadata>
  <sodipodi:namedview
     pagecolor="#ffffff"
     bordercolor="#666666"
     borderopacity="1"
     objecttolerance="10"
     gridtolerance="10"
     guidetolerance="10"
     inkscape:pageopacity="0"
     inkscape:pageshadow="2"
     inkscape:window-width="1908"
     inkscape:window-height="1012"
     id="namedview26"
     showgrid="false"
     inkscape:zoom="4.9166667"
     inkscape:cx="-7.4237284"
     inkscape:cy="24.20339"
     inkscape:window-x="-13"
     inkscape:window-y="0"
     inkscape:window-maximized="0"
     inkscape:current-layer="g4679" />
  <defs
     id="defs4">
    <linearGradient
       id="3"
       x1="-67.120003"
       y1="44.929001"
       x2="-67.529999"
       y2="11.167"
       gradientUnits="userSpaceOnUse"
       gradientTransform="matrix(1.2203527,0,0,1.0690823,113.30309,5.3898043)">
      <stop
         stop-color="#197ff1"
         id="stop7" />
      <stop
         stop-color="#21c6fb"
         offset="1"
         id="stop9" />
    </linearGradient>
    <linearGradient
       gradientTransform="matrix(0.55597917,0,0,0.43377,-109.23981,22.010659)"
       gradientUnits="userSpaceOnUse"
       y2="-40.759998"
       x2="248.03999"
       y1="-6.2360001"
       x1="248.2"
       id="2"
       xlink:href="#1" />
    <linearGradient
       xlink:href="#1"
       id="0"
       x1="-67.059998"
       y1="22.419001"
       x2="-67.190002"
       y2="17.944"
       gradientUnits="userSpaceOnUse"
       gradientTransform="translate(90.51,-0.814)" />
    <linearGradient
       y2="517.77002"
       x2="400.70001"
       y1="546.07001"
       x1="400.51001"
       gradientUnits="userSpaceOnUse"
       id="1">
      <stop
         stop-color="#2e3e46"
         id="stop14" />
      <stop
         stop-color="#435a64"
         offset="1"
         id="stop16" />
    </linearGradient>
    <linearGradient
       gradientUnits="userSpaceOnUse"
       y2="416.19"
       x2="-659.32001"
       y1="588.27002"
       x1="-661.85999"
       id="3-3"
       xlink:href="#1"
       gradientTransform="matrix(0.12614,0,0,0.12614,115.46266,-27.653833)" />
    <linearGradient
       id="2-6"
       x1="-701.19"
       y1="647.77002"
       x2="-704.04999"
       y2="354.29001"
       gradientUnits="userSpaceOnUse"
       gradientTransform="matrix(0.0159113,0,0,0.0159113,106.11769,-105.8063)">
      <stop
         id="stop4168"
         stop-color="#93cfff" />
      <stop
         id="stop4170"
         stop-color="#cde8fe"
         offset="1" />
    </linearGradient>
    <linearGradient
       gradientTransform="matrix(0.52660675,0,0,0.52570737,-40.249033,-37.478171)"
       gradientUnits="userSpaceOnUse"
       y2="-37.783001"
       x2="59.150002"
       y1="-13.295"
       x1="59.119999"
       id="0-7"
       xlink:href="#1-5" />
    <linearGradient
       id="1-5">
      <stop
         id="stop4174"
         stop-color="#289bf7" />
      <stop
         id="stop4176"
         stop-color="#71b9f1"
         offset="1" />
    </linearGradient>
    <linearGradient
       gradientUnits="userSpaceOnUse"
       y2="1025.51"
       x2="-19.996"
       y1="1048.7"
       x1="-19.915"
       id="3-35"
       xlink:href="#1-5" />
    <linearGradient
       id="2-62"
       x1="-701.19"
       y1="647.77"
       x2="-704.05"
       y2="354.29"
       gradientUnits="userSpaceOnUse"
       gradientTransform="matrix(0.0159113,0,0,0.0159113,208.73004,-53.431242)">
      <stop
         id="stop4277"
         stop-color="#93cfff" />
      <stop
         id="stop4279"
         stop-color="#cde8fe"
         offset="1" />
    </linearGradient>
    <linearGradient
       gradientTransform="matrix(0.52660675,0,0,0.52570737,50.869613,9.0303042)"
       gradientUnits="userSpaceOnUse"
       y2="-37.783"
       x2="59.15"
       y1="-13.295"
       x1="59.12"
       id="0-9"
       xlink:href="#1-5" />
    <linearGradient
       gradientUnits="userSpaceOnUse"
       y2="1025.51"
       x2="-19.996"
       y1="1048.7"
       x1="-19.915001"
       id="3-2"
       xlink:href="#1"
       gradientTransform="translate(52.091593,-1001.2797)" />
    <linearGradient
       id="2-7"
       x1="-701.19"
       y1="647.77"
       x2="-704.05"
       y2="354.29"
       gradientUnits="userSpaceOnUse"
       gradientTransform="matrix(0.0159113,0,0,0.0159113,235.06068,-67.971199)">
      <stop
         id="stop4448"
         stop-color="#93cfff" />
      <stop
         id="stop4450"
         stop-color="#cde8fe"
         offset="1" />
    </linearGradient>
    <linearGradient
       gradientTransform="matrix(0.52660675,0,0,0.52570737,43.547573,-11.105338)"
       gradientUnits="userSpaceOnUse"
       y2="-37.783"
       x2="59.15"
       y1="-13.295"
       x1="59.12"
       id="0-0"
       xlink:href="#1-5" />
    <linearGradient
       gradientUnits="userSpaceOnUse"
       y2="290.14001"
       x2="-422.39001"
       y1="447.89001"
       x1="-423.69"
       id="3-36"
       xlink:href="#1"
       gradientTransform="matrix(0.12614,0,0,0.12614,85.647146,-10.562503)" />
    <linearGradient
       id="2-0"
       x1="-701.19"
       y1="647.77"
       x2="-704.05"
       y2="354.29"
       gradientUnits="userSpaceOnUse"
       gradientTransform="matrix(0.0159113,0,0,0.0159113,7.3991083,-66.257786)">
      <stop
         id="stop4535"
         stop-color="#93cfff" />
      <stop
         id="stop4537"
         stop-color="#cde8fe"
         offset="1" />
    </linearGradient>
    <linearGradient
       gradientTransform="matrix(0.52660675,0,0,0.52570737,-127.91005,-2.3595268)"
       gradientUnits="userSpaceOnUse"
       y2="-37.783"
       x2="59.15"
       y1="-13.295"
       x1="59.12"
       id="0-6"
       xlink:href="#1-5" />
    <linearGradient
       gradientUnits="userSpaceOnUse"
       y2="268.01001"
       x2="-429.69"
       y1="455.73999"
       x1="-429.17999"
       id="3-6"
       xlink:href="#1"
       gradientTransform="matrix(0.12614,0,0,0.12614,85.647461,-9.742639)" />
    <linearGradient
       gradientUnits="userSpaceOnUse"
       y2="276.04999"
       x2="-425.09"
       y1="459.85999"
       x1="-424.64999"
       id="3-33"
       xlink:href="#1"
       gradientTransform="matrix(0.12614,0,0,0.12614,86.460898,-10.227276)" />
    <linearGradient
       id="2-3"
       x1="-701.19"
       y1="647.77"
       x2="-704.05"
       y2="354.29"
       gradientUnits="userSpaceOnUse"
       gradientTransform="matrix(0.0159113,0,0,0.0159113,50.917739,-17.929201)">
      <stop
         id="stop4330"
         stop-color="#93cfff" />
      <stop
         id="stop4332"
         stop-color="#cde8fe"
         offset="1" />
    </linearGradient>
    <linearGradient
       gradientTransform="matrix(0.52660675,0,0,0.52570737,-89.265982,40.555728)"
       gradientUnits="userSpaceOnUse"
       y2="-37.783"
       x2="59.15"
       y1="-13.295"
       x1="59.12"
       id="0-8"
       xlink:href="#1-5" />
    <linearGradient
       xlink:href="#1"
       id="3-4"
       y1="22.120001"
       x2="0"
       y2="-27.875"
       gradientUnits="userSpaceOnUse"
       gradientTransform="matrix(0.54165,0,0,0.54166,-4.3572626,37.081242)" />
    <linearGradient
       id="2-76"
       x1="-701.19"
       y1="647.77"
       x2="-704.05"
       y2="354.29"
       gradientUnits="userSpaceOnUse"
       gradientTransform="matrix(0.01591116,0,0,0.01591038,51.604443,11.161472)">
      <stop
         id="stop4417"
         stop-color="#93cfff" />
      <stop
         id="stop4419"
         stop-color="#cde8fe"
         offset="1" />
    </linearGradient>
    <linearGradient
       gradientTransform="matrix(0.52660445,0,0,0.5256922,-88.655587,66.38633)"
       gradientUnits="userSpaceOnUse"
       y2="-37.783"
       x2="59.15"
       y1="-13.295"
       x1="59.12"
       id="1-0"
       xlink:href="#1-5" />
    <linearGradient
       id="4"
       x1="-701.19"
       y1="647.77"
       x2="-704.05"
       y2="354.29"
       gradientUnits="userSpaceOnUse"
       gradientTransform="matrix(0.0159112,0,0,0.0159112,48.397921,-43.123965)">
      <stop
         id="stop4575"
         stop-color="#93cfff" />
      <stop
         id="stop4577"
         stop-color="#cde8fe"
         offset="1" />
    </linearGradient>
    <linearGradient
       y2="493.92999"
       x2="542.13"
       y1="540.47998"
       x1="540.82001"
       gradientUnits="userSpaceOnUse"
       id="5"
       xlink:href="#1"
       gradientTransform="matrix(0.25328069,0,0,0.25328069,-325.98739,-331.14874)" />
    <linearGradient
       gradientTransform="matrix(0.52660504,0,0,0.52570566,-91.5031,18.182856)"
       gradientUnits="userSpaceOnUse"
       y2="-37.783"
       x2="59.15"
       y1="-13.295"
       x1="59.12"
       id="3-68"
       xlink:href="#1-5" />
    <linearGradient
       gradientUnits="userSpaceOnUse"
       y2="501.29"
       x2="408.62"
       y1="547.03"
       x1="407.33"
       id="0-90"
       xlink:href="#1-5" />
    <linearGradient
       gradientUnits="userSpaceOnUse"
       y2="523.51"
       x2="432.47"
       y1="547.03"
       x1="407.33"
       id="2-33"
       xlink:href="#1-5" />
    <linearGradient
       gradientUnits="userSpaceOnUse"
       y2="31.120001"
       x2="310.67001"
       y1="147.19"
       x1="315.51999"
       id="3-37"
       xlink:href="#1"
       gradientTransform="translate(345.72038,50.752341)" />
    <linearGradient
       id="2-32"
       x1="-701.19"
       y1="647.77"
       x2="-704.05"
       y2="354.29"
       gradientUnits="userSpaceOnUse">
      <stop
         id="stop4669"
         stop-color="#93cfff" />
      <stop
         id="stop4671"
         stop-color="#cde8fe"
         offset="1" />
    </linearGradient>
    <linearGradient
       gradientTransform="matrix(2.5286025,0,0,2.5242839,56.157555,124.55401)"
       gradientUnits="userSpaceOnUse"
       y2="-37.783"
       x2="59.15"
       y1="-13.295"
       x1="59.12"
       id="0-65"
       xlink:href="#1-5" />
    <linearGradient
       gradientUnits="userSpaceOnUse"
       y2="268.39999"
       x2="-429.45999"
       y1="461.35001"
       x1="-421.57999"
       id="3-9"
       xlink:href="#1"
       gradientTransform="matrix(0.6056852,0,0,0.6056852,916.54147,-80.700192)" />
    <linearGradient
       id="2-60"
       x1="-701.19"
       y1="647.77"
       x2="-704.05"
       y2="354.29"
       gradientUnits="userSpaceOnUse"
       gradientTransform="matrix(0.36685456,0,0,0.36685456,1127.0154,-235.44069)">
      <stop
         id="stop4753"
         stop-color="#93cfff" />
      <stop
         id="stop4755"
         stop-color="#cde8fe"
         offset="1" />
    </linearGradient>
    <linearGradient
       gradientUnits="userSpaceOnUse"
       y2="273.82001"
       x2="-418.26001"
       y1="451.12"
       x1="-405.97"
       id="3-0"
       xlink:href="#1"
       gradientTransform="matrix(0.6056852,0,0,0.6056852,916.5461,-76.319177)" />
    <linearGradient
       id="2-4"
       x1="-701.19"
       y1="647.77"
       x2="-704.05"
       y2="354.29"
       gradientUnits="userSpaceOnUse"
       gradientTransform="matrix(0.36685456,0,0,0.36685456,2202.757,-323.2563)">
      <stop
         id="stop4839"
         stop-color="#93cfff" />
      <stop
         id="stop4841"
         stop-color="#cde8fe"
         offset="1" />
    </linearGradient>
    <linearGradient
       gradientTransform="matrix(2.5286025,0,0,2.5242839,726.11549,69.863585)"
       gradientUnits="userSpaceOnUse"
       y2="-37.783"
       x2="59.15"
       y1="-13.295"
       x1="59.12"
       id="0-87"
       xlink:href="#1-5" />
    <linearGradient
       gradientUnits="userSpaceOnUse"
       y2="-19.476"
       x2="167.7"
       y1="26.964001"
       x1="167.58"
       id="3-62"
       xlink:href="#1"
       gradientTransform="matrix(2.3633919,0,0,2.3633919,264.98248,131.83942)" />
    <linearGradient
       id="2-47"
       x1="-701.19"
       y1="647.77"
       x2="-704.05"
       y2="354.29"
       gradientUnits="userSpaceOnUse"
       gradientTransform="matrix(0.36686047,0,0,0.36686047,1051.7533,70.342362)">
      <stop
         id="stop5104"
         stop-color="#93cfff" />
      <stop
         id="stop5106"
         stop-color="#cde8fe"
         offset="1" />
    </linearGradient>
    <linearGradient
       gradientTransform="matrix(2.5286228,0,0,2.5243043,9.2780419,314.9938)"
       gradientUnits="userSpaceOnUse"
       y2="-37.783"
       x2="59.15"
       y1="-13.295"
       x1="59.12"
       id="0-93"
       xlink:href="#1-5" />
  </defs>
  <path
     inkscape:connector-curvature="0"
     style="color:#000000;fill:url(#2)"
     id="path20"
     d="m 4.3198612,9.224659 c -0.6154752,0 -1.1122422,0.387 -1.1122422,0.868 l 0,35.4 57.855949,0.104 0,-30.381 c 0,-0.481 -0.495477,-0.868 -1.112242,-0.868 l -27.02155,0 c -1.134178,0.078 -1.278691,-0.039 -1.838683,-0.622 -0.794828,-0.829 -1.99352,-3.062 -2.775445,-3.873 -0.627088,-0.708 -0.729021,-0.626 -1.770298,-0.626 z"
     sodipodi:insensitive="true" />
  <rect
     style="fill:url(#3)"
     id="rect22"
     width="58.573273"
     height="37.770679"
     x="2.8489571"
     y="17.141155"
     rx="2.0294466"
     sodipodi:insensitive="true" />
  <g
     id="g4679"
     transform="matrix(0.20826,0,0,0.20826,-105.23254,6.6839052)"
     style="fill:#60aae5">
    <path
       inkscape:connector-curvature="0"
       d="m 659.45622,83.463148 c -2.04433,2.38703 -15.17061,10.39656 -17.38747,11.76024 -5.45471,4.09103 -7.16108,10.053872 -6.81839,12.951392 0.0827,0.69956 0.17489,1.3684 0.30015,2.03488 0.27416,0.15125 0.51995,0.35451 0.7232,0.61921 l 19.59252,25.62153 c 0.4065,-0.13708 0.80355,-0.29306 1.22896,-0.38524 l 0,-9.4772 c 0,-1.30695 1.05644,-2.36339 2.3634,-2.36339 1.30695,0 2.36339,1.05644 2.36339,2.36339 l 0,9.50084 c 0.7232,0.15362 1.41094,0.37105 2.07269,0.65702 l 19.5358,-26.93558 c 0.0898,-0.53176 0.15598,-1.06589 0.22452,-1.62128 0.34033,-2.89752 -1.36368,-8.860362 -6.81838,-12.951392 -2.21687,-1.36368 -15.33133,-9.37321 -17.37802,-11.76024 m 35.43197,27.422442 c -2.57846,-0.28361 -4.79769,0.0851 -6.12355,0.69483 -0.41832,0.1938 -0.82246,0.38996 -1.21951,0.59085 l -19.8265,27.33736 c 0.53413,0.58375 0.99026,1.22187 1.38731,1.90489 l 9.06834,-2.94479 c 1.23369,-0.40414 2.56664,0.27652 2.97315,1.51967 0.40414,1.23841 -0.27652,2.57846 -1.51966,2.9826 l -9.06834,2.94478 c 0.0378,0.37578 0.1229,0.73738 0.1229,1.12498 0,0.0378 -0.0189,0.0756 -0.0189,0.11344 l 31.8018,10.69198 c 0.41596,-0.0685 0.83428,-0.14653 1.25733,-0.23397 2.86206,-0.57194 8.00244,-4.02958 10.20276,-10.48401 0.61448,-2.52883 4.17611,-17.48201 5.81394,-20.16446 -2.89515,-1.20769 -14.57031,-11.21902 -16.54374,-12.90412 -2.78644,-1.96161 -5.72177,-2.88806 -8.30023,-3.16931 m -70.56379,0.4136 c -2.57847,0.28361 -5.52089,1.20769 -8.30969,3.16931 -1.98052,1.6851 -13.66277,11.68697 -16.56738,12.89466 1.63783,2.68245 5.20183,17.64745 5.81395,20.17392 2.20504,6.45206 7.35251,9.91206 10.21221,10.484 0.64521,0.12999 1.26914,0.23398 1.89544,0.31906 l 30.9368,-10.42019 c -0.002,-0.29779 -0.0851,-0.57904 -0.0851,-0.88155 0,-0.38523 0.0756,-0.75865 0.11344,-1.13443 l -9.06833,-2.94478 c -1.24078,-0.40414 -1.92144,-1.73001 -1.51966,-2.97315 0.40177,-1.24315 1.73473,-1.91908 2.97314,-1.51966 l 9.06834,2.94478 c 0.54594,-0.93117 1.19824,-1.78672 1.97816,-2.52173 l -19.25456,-25.1914 c -0.20797,-0.27415 -0.34032,-0.57667 -0.41359,-0.891 -0.54122,-0.28833 -1.08952,-0.56012 -1.66855,-0.82482 -1.3235,-0.60976 -3.53564,-0.96663 -6.1141,-0.68539 m 35.13182,29.2328 c -0.15835,0 -0.31433,0.0355 -0.46795,0.0473 -1.09189,0.078 -2.10578,0.41359 -2.9826,0.96662 -0.0425,0.026 -0.0922,0.0473 -0.13235,0.0756 -0.44904,0.29779 -0.839,0.66175 -1.2006,1.0588 -1.05171,1.1557 -1.71583,2.67536 -1.71583,4.36046 0,0.59321 0.10399,1.15097 0.25289,1.69692 0.0142,0.0496 0.0331,0.0993 0.0473,0.14889 0.80118,2.68245 3.26148,4.65115 6.19917,4.65115 0.052,0 0.0993,-0.0165 0.15126,-0.0189 0.052,0 0.10872,-0.007 0.15835,-0.009 2.85261,-0.13471 5.20891,-2.1105 5.93684,-4.77405 0.0142,-0.0496 0.026,-0.0969 0.0378,-0.14889 0.12526,-0.50104 0.21507,-1.01862 0.21507,-1.55748 0,-2.14123 -1.05407,-4.01776 -2.65409,-5.20419 -0.0425,-0.0307 -0.0733,-0.0662 -0.11344,-0.0945 -1.06117,-0.74683 -2.33976,-1.2006 -3.7318,-1.2006 m 10.13895,11.24501 c -0.46558,0.99736 -1.08479,1.90253 -1.81035,2.71081 l 5.59887,7.70939 c 0.7681,1.05644 0.54358,2.53592 -0.51522,3.30166 -0.42068,0.30488 -0.90281,0.44195 -1.38731,0.44195 -0.73265,0 -1.45585,-0.33324 -1.92144,-0.96663 l -5.57997,-7.69047 c -0.52703,0.23634 -1.08007,0.40177 -1.64964,0.55303 l 0,33.04967 c 0.1867,0.35688 0.37578,0.71375 0.58139,1.07771 1.42749,2.54301 6.31262,6.36698 13.12864,6.47097 2.59264,-0.19853 17.9216,-1.42985 20.97983,-0.70429 0.24816,-3.13386 6.159,-17.32839 7.13745,-19.73196 2.01124,-6.51824 -0.11817,-12.344 -2.10106,-14.48996 -0.38996,-0.42068 -0.78701,-0.82482 -1.19115,-1.21951 l -31.27713,-10.51237 m -19.91866,0.67593 -31.3244,10.55019 c -0.24579,0.25052 -0.48686,0.51049 -0.73265,0.77755 -1.97816,2.1436 -4.10994,7.97645 -2.10106,14.48996 0.99026,2.40593 6.90583,16.59101 7.16108,19.73196 3.05823,-0.73029 18.37537,0.50576 20.97038,0.70429 6.81602,-0.10399 11.70115,-3.92796 13.12864,-6.47097 0.29542,-0.52704 0.56721,-1.04462 0.82482,-1.56693 l 0,-32.58881 c -0.9359,-0.15598 -1.82926,-0.4065 -2.67299,-0.77756 l -5.57997,7.67157 c -0.46086,0.64048 -1.1817,0.97609 -1.91435,0.97609 -0.48213,0 -0.96663,-0.14417 -1.38731,-0.44905 -1.05407,-0.76337 -1.29278,-2.24286 -0.52467,-3.30166 l 5.59887,-7.70938 c -0.55776,-0.62157 -1.03516,-1.29987 -1.44403,-2.03488 z"
       id="path5120"
       style="fill:url(#3-62);fill-opacity:1" />
  </g>
</svg>
