<?xml version="1.0" encoding="UTF-8" standalone="no"?>
<svg
   xmlns:dc="http://purl.org/dc/elements/1.1/"
   xmlns:cc="http://creativecommons.org/ns#"
   xmlns:rdf="http://www.w3.org/1999/02/22-rdf-syntax-ns#"
   xmlns:svg="http://www.w3.org/2000/svg"
   xmlns="http://www.w3.org/2000/svg"
   xmlns:xlink="http://www.w3.org/1999/xlink"
   xmlns:sodipodi="http://sodipodi.sourceforge.net/DTD/sodipodi-0.dtd"
   xmlns:inkscape="http://www.inkscape.org/namespaces/inkscape"
   viewBox="0 0 64 64"
   id="svg2"
   version="1.1"
   inkscape:version="0.91 r13725"
   sodipodi:docname="folder-github.svg"
   width="64"
   height="64">
  <metadata
     id="metadata28">
    <rdf:RDF>
      <cc:Work
         rdf:about="">
        <dc:format>image/svg+xml</dc:format>
        <dc:type
           rdf:resource="http://purl.org/dc/dcmitype/StillImage" />
        <dc:title></dc:title>
      </cc:Work>
    </rdf:RDF>
  </metadata>
  <sodipodi:namedview
     pagecolor="#ffffff"
     bordercolor="#666666"
     borderopacity="1"
     objecttolerance="10"
     gridtolerance="10"
     guidetolerance="10"
     inkscape:pageopacity="0"
     inkscape:pageshadow="2"
     inkscape:window-width="1908"
     inkscape:window-height="1012"
     id="namedview26"
     showgrid="false"
     inkscape:zoom="4.9166667"
     inkscape:cx="-7.4237284"
     inkscape:cy="24.20339"
     inkscape:window-x="-13"
     inkscape:window-y="0"
     inkscape:window-maximized="0"
     inkscape:current-layer="svg2" />
  <defs
     id="defs4">
    <linearGradient
       id="3"
       x1="-67.120003"
       y1="44.929001"
       x2="-67.529999"
       y2="11.167"
       gradientUnits="userSpaceOnUse"
       gradientTransform="matrix(1.2203527,0,0,1.0690823,113.30309,5.3898043)">
      <stop
         stop-color="#197ff1"
         id="stop7" />
      <stop
         stop-color="#21c6fb"
         offset="1"
         id="stop9" />
    </linearGradient>
    <linearGradient
       gradientTransform="matrix(0.55597917,0,0,0.43377,-109.23981,22.010659)"
       gradientUnits="userSpaceOnUse"
       y2="-40.759998"
       x2="248.03999"
       y1="-6.2360001"
       x1="248.2"
       id="2"
       xlink:href="#1" />
    <linearGradient
       xlink:href="#1"
       id="0"
       x1="-67.059998"
       y1="22.419001"
       x2="-67.190002"
       y2="17.944"
       gradientUnits="userSpaceOnUse"
       gradientTransform="translate(90.51,-0.814)" />
    <linearGradient
       y2="517.77002"
       x2="400.70001"
       y1="546.07001"
       x1="400.51001"
       gradientUnits="userSpaceOnUse"
       id="1">
      <stop
         stop-color="#2e3e46"
         id="stop14" />
      <stop
         stop-color="#435a64"
         offset="1"
         id="stop16" />
    </linearGradient>
    <linearGradient
       gradientUnits="userSpaceOnUse"
       y2="416.19"
       x2="-659.32001"
       y1="588.27002"
       x1="-661.85999"
       id="3-3"
       xlink:href="#1"
       gradientTransform="matrix(0.12614,0,0,0.12614,115.46266,-27.653833)" />
    <linearGradient
       id="2-6"
       x1="-701.19"
       y1="647.77002"
       x2="-704.04999"
       y2="354.29001"
       gradientUnits="userSpaceOnUse"
       gradientTransform="matrix(0.0159113,0,0,0.0159113,106.11769,-105.8063)">
      <stop
         id="stop4168"
         stop-color="#93cfff" />
      <stop
         id="stop4170"
         stop-color="#cde8fe"
         offset="1" />
    </linearGradient>
    <linearGradient
       gradientTransform="matrix(0.52660675,0,0,0.52570737,-40.249033,-37.478171)"
       gradientUnits="userSpaceOnUse"
       y2="-37.783001"
       x2="59.150002"
       y1="-13.295"
       x1="59.119999"
       id="0-7"
       xlink:href="#1-5" />
    <linearGradient
       id="1-5">
      <stop
         id="stop4174"
         stop-color="#289bf7" />
      <stop
         id="stop4176"
         stop-color="#71b9f1"
         offset="1" />
    </linearGradient>
    <linearGradient
       gradientUnits="userSpaceOnUse"
       y2="1025.51"
       x2="-19.996"
       y1="1048.7"
       x1="-19.915"
       id="3-35"
       xlink:href="#1-5" />
    <linearGradient
       id="2-62"
       x1="-701.19"
       y1="647.77"
       x2="-704.05"
       y2="354.29"
       gradientUnits="userSpaceOnUse"
       gradientTransform="matrix(0.0159113,0,0,0.0159113,208.73004,-53.431242)">
      <stop
         id="stop4277"
         stop-color="#93cfff" />
      <stop
         id="stop4279"
         stop-color="#cde8fe"
         offset="1" />
    </linearGradient>
    <linearGradient
       gradientTransform="matrix(0.52660675,0,0,0.52570737,50.869613,9.0303042)"
       gradientUnits="userSpaceOnUse"
       y2="-37.783"
       x2="59.15"
       y1="-13.295"
       x1="59.12"
       id="0-9"
       xlink:href="#1-5" />
    <linearGradient
       gradientUnits="userSpaceOnUse"
       y2="1025.51"
       x2="-19.996"
       y1="1048.7"
       x1="-19.915001"
       id="3-2"
       xlink:href="#1"
       gradientTransform="translate(52.091593,-1001.2797)" />
    <linearGradient
       id="2-7"
       x1="-701.19"
       y1="647.77"
       x2="-704.05"
       y2="354.29"
       gradientUnits="userSpaceOnUse"
       gradientTransform="matrix(0.0159113,0,0,0.0159113,235.06068,-67.971199)">
      <stop
         id="stop4448"
         stop-color="#93cfff" />
      <stop
         id="stop4450"
         stop-color="#cde8fe"
         offset="1" />
    </linearGradient>
    <linearGradient
       gradientTransform="matrix(0.52660675,0,0,0.52570737,43.547573,-11.105338)"
       gradientUnits="userSpaceOnUse"
       y2="-37.783"
       x2="59.15"
       y1="-13.295"
       x1="59.12"
       id="0-0"
       xlink:href="#1-5" />
    <linearGradient
       gradientUnits="userSpaceOnUse"
       y2="290.14001"
       x2="-422.39001"
       y1="447.89001"
       x1="-423.69"
       id="3-36"
       xlink:href="#1"
       gradientTransform="matrix(0.12614,0,0,0.12614,85.647146,-10.562503)" />
    <linearGradient
       id="2-0"
       x1="-701.19"
       y1="647.77"
       x2="-704.05"
       y2="354.29"
       gradientUnits="userSpaceOnUse"
       gradientTransform="matrix(0.0159113,0,0,0.0159113,7.3991083,-66.257786)">
      <stop
         id="stop4535"
         stop-color="#93cfff" />
      <stop
         id="stop4537"
         stop-color="#cde8fe"
         offset="1" />
    </linearGradient>
    <linearGradient
       gradientTransform="matrix(0.52660675,0,0,0.52570737,-127.91005,-2.3595268)"
       gradientUnits="userSpaceOnUse"
       y2="-37.783"
       x2="59.15"
       y1="-13.295"
       x1="59.12"
       id="0-6"
       xlink:href="#1-5" />
    <linearGradient
       gradientUnits="userSpaceOnUse"
       y2="268.01001"
       x2="-429.69"
       y1="455.73999"
       x1="-429.17999"
       id="3-6"
       xlink:href="#1"
       gradientTransform="matrix(0.12614,0,0,0.12614,85.647461,-9.742639)" />
    <linearGradient
       gradientUnits="userSpaceOnUse"
       y2="276.04999"
       x2="-425.09"
       y1="459.85999"
       x1="-424.64999"
       id="3-33"
       xlink:href="#1"
       gradientTransform="matrix(0.12614,0,0,0.12614,86.460898,-10.227276)" />
    <linearGradient
       id="2-3"
       x1="-701.19"
       y1="647.77"
       x2="-704.05"
       y2="354.29"
       gradientUnits="userSpaceOnUse"
       gradientTransform="matrix(0.0159113,0,0,0.0159113,50.917739,-17.929201)">
      <stop
         id="stop4330"
         stop-color="#93cfff" />
      <stop
         id="stop4332"
         stop-color="#cde8fe"
         offset="1" />
    </linearGradient>
    <linearGradient
       gradientTransform="matrix(0.52660675,0,0,0.52570737,-89.265982,40.555728)"
       gradientUnits="userSpaceOnUse"
       y2="-37.783"
       x2="59.15"
       y1="-13.295"
       x1="59.12"
       id="0-8"
       xlink:href="#1-5" />
    <linearGradient
       xlink:href="#1"
       id="3-4"
       y1="22.120001"
       x2="0"
       y2="-27.875"
       gradientUnits="userSpaceOnUse"
       gradientTransform="matrix(0.54165,0,0,0.54166,-4.3572626,37.081242)" />
    <linearGradient
       id="2-76"
       x1="-701.19"
       y1="647.77"
       x2="-704.05"
       y2="354.29"
       gradientUnits="userSpaceOnUse"
       gradientTransform="matrix(0.01591116,0,0,0.01591038,51.604443,11.161472)">
      <stop
         id="stop4417"
         stop-color="#93cfff" />
      <stop
         id="stop4419"
         stop-color="#cde8fe"
         offset="1" />
    </linearGradient>
    <linearGradient
       gradientTransform="matrix(0.52660445,0,0,0.5256922,-88.655587,66.38633)"
       gradientUnits="userSpaceOnUse"
       y2="-37.783"
       x2="59.15"
       y1="-13.295"
       x1="59.12"
       id="1-0"
       xlink:href="#1-5" />
    <linearGradient
       id="4"
       x1="-701.19"
       y1="647.77"
       x2="-704.05"
       y2="354.29"
       gradientUnits="userSpaceOnUse"
       gradientTransform="matrix(0.0159112,0,0,0.0159112,48.397921,-43.123965)">
      <stop
         id="stop4575"
         stop-color="#93cfff" />
      <stop
         id="stop4577"
         stop-color="#cde8fe"
         offset="1" />
    </linearGradient>
    <linearGradient
       y2="493.92999"
       x2="542.13"
       y1="540.47998"
       x1="540.82001"
       gradientUnits="userSpaceOnUse"
       id="5"
       xlink:href="#1"
       gradientTransform="matrix(0.25328069,0,0,0.25328069,-325.98739,-331.14874)" />
    <linearGradient
       gradientTransform="matrix(0.52660504,0,0,0.52570566,-91.5031,18.182856)"
       gradientUnits="userSpaceOnUse"
       y2="-37.783"
       x2="59.15"
       y1="-13.295"
       x1="59.12"
       id="3-68"
       xlink:href="#1-5" />
    <linearGradient
       gradientUnits="userSpaceOnUse"
       y2="501.29"
       x2="408.62"
       y1="547.03"
       x1="407.33"
       id="0-90"
       xlink:href="#1-5" />
    <linearGradient
       gradientUnits="userSpaceOnUse"
       y2="523.51"
       x2="432.47"
       y1="547.03"
       x1="407.33"
       id="2-33"
       xlink:href="#1-5" />
  </defs>
  <path
     inkscape:connector-curvature="0"
     style="color:#000000;fill:url(#2)"
     id="path20"
     d="m 4.3198612,9.224659 c -0.6154752,0 -1.1122422,0.387 -1.1122422,0.868 l 0,35.4 57.855949,0.104 0,-30.381 c 0,-0.481 -0.495477,-0.868 -1.112242,-0.868 l -27.02155,0 c -1.134178,0.078 -1.278691,-0.039 -1.838683,-0.622 -0.794828,-0.829 -1.99352,-3.062 -2.775445,-3.873 -0.627088,-0.708 -0.729021,-0.626 -1.770298,-0.626 z"
     sodipodi:insensitive="true" />
  <rect
     style="fill:url(#3)"
     id="rect22"
     width="58.573273"
     height="37.770679"
     x="2.8489571"
     y="17.141155"
     rx="2.0294466"
     sodipodi:insensitive="true" />
  <path
     style="fill:url(#5);fill-opacity:1;stroke:url(#5);stroke-width:0.51232886"
     inkscape:connector-curvature="0"
     d="m 42.48534,30.345081 c -1.068946,-1.836936 -2.521383,-3.290883 -4.350266,-4.362848 -1.831903,-1.071965 -3.831395,-1.607947 -6.000488,-1.607947 -2.168591,0 -4.169089,0.535982 -6.000489,1.607947 -1.831399,1.071965 -3.281823,2.526416 -4.350769,4.362848 -1.068945,1.836432 -1.603418,3.842466 -1.603418,6.017096 0,2.611971 0.759938,4.961236 2.280316,7.04578 1.519876,2.086557 3.484139,3.527923 5.891279,4.331142 0.280321,0.05234 0.487669,0.0156 0.622545,-0.10921 0.134876,-0.124811 0.202315,-0.280825 0.202315,-0.468041 0,-0.0312 -0.0025,-0.312027 -0.0076,-0.842977 -0.0055,-0.53095 -0.0075,-0.993959 -0.0075,-1.389025 l -0.357825,0.0619 c -0.228484,0.04177 -0.516355,0.05989 -0.864114,0.05486 -0.34776,-0.0045 -0.708101,-0.04127 -1.081527,-0.109209 -0.37393,-0.06744 -0.721186,-0.223452 -1.042776,-0.468042 -0.321589,-0.244589 -0.550074,-0.564668 -0.68495,-0.960239 l -0.155511,-0.359334 c -0.103673,-0.239054 -0.267236,-0.50327 -0.490185,-0.79567 -0.222948,-0.291394 -0.448917,-0.489179 -0.676898,-0.593356 l -0.108706,-0.07801 c -0.07247,-0.05234 -0.139909,-0.114745 -0.202315,-0.187719 -0.06241,-0.07297 -0.108706,-0.145445 -0.139909,-0.218419 -0.0312,-0.07297 -0.0055,-0.132864 0.07801,-0.179668 0.08304,-0.0468 0.233517,-0.06995 0.451433,-0.06995 l 0.311021,0.0468 c 0.207347,0.04177 0.464015,0.166079 0.770507,0.374433 0.305988,0.20785 0.557623,0.478609 0.754905,0.811271 0.239053,0.426773 0.52642,0.751885 0.864114,0.97584 0.337191,0.223956 0.676898,0.335682 1.019625,0.335682 0.342224,0 0.638147,-0.02617 0.887265,-0.07801 0.249119,-0.05184 0.482636,-0.129844 0.700552,-0.234021 0.09361,-0.697532 0.34776,-1.233011 0.762454,-1.607948 -0.591342,-0.0624 -1.123299,-0.156517 -1.595366,-0.280824 -0.472067,-0.124811 -0.959736,-0.327629 -1.463006,-0.608957 -0.50327,-0.280825 -0.920984,-0.629591 -1.253142,-1.045795 -0.332158,-0.416204 -0.604427,-0.962755 -0.817311,-1.63915 -0.212883,-0.676395 -0.319073,-1.456967 -0.319073,-2.341212 0,-1.259182 0.410165,-2.331147 1.229992,-3.215392 -0.383995,-0.946651 -0.347759,-2.008048 0.108706,-3.18419 0.300956,-0.09361 0.747356,-0.02315 1.338699,0.21087 0.591342,0.234021 1.024657,0.434826 1.299946,0.600905 0.275289,0.166079 0.495721,0.306994 0.6618,0.421237 0.965272,-0.270759 1.961243,-0.405636 2.988417,-0.405636 1.027174,0 2.023146,0.13538 2.988921,0.405636 l 0.591342,-0.374433 c 0.404629,-0.249622 0.882233,-0.47861 1.431803,-0.686964 0.550074,-0.20785 0.970305,-0.265223 1.261195,-0.171615 0.467035,1.176142 0.508303,2.237539 0.124308,3.18419 0.819826,0.884748 1.229992,1.95621 1.229992,3.215392 0,0.884748 -0.106694,1.667333 -0.319074,2.348761 -0.212883,0.681931 -0.487668,1.227978 -0.824859,1.63915 -0.337191,0.411172 -0.757925,0.756918 -1.260692,1.037743 -0.50327,0.280824 -0.990938,0.484146 -1.463005,0.608957 -0.472068,0.12481 -1.004024,0.218922 -1.595366,0.281327 0.539505,0.468042 0.809258,1.206842 0.809258,2.216402 l 0,3.292895 c 0,0.187217 0.06492,0.34323 0.194765,0.468041 0.129844,0.124811 0.334675,0.16155 0.614996,0.10921 2.407644,-0.801206 4.371403,-2.245088 5.891279,-4.331645 1.519875,-2.086054 2.280316,-4.435319 2.280316,-7.04578 -5e-5,-2.174126 -0.535479,-4.179657 -1.603921,-6.016593 z"
     id="path4594" />
</svg>
