<?xml version="1.0" encoding="UTF-8" standalone="no"?>
<svg
   xmlns:dc="http://purl.org/dc/elements/1.1/"
   xmlns:cc="http://creativecommons.org/ns#"
   xmlns:rdf="http://www.w3.org/1999/02/22-rdf-syntax-ns#"
   xmlns:svg="http://www.w3.org/2000/svg"
   xmlns="http://www.w3.org/2000/svg"
   xmlns:xlink="http://www.w3.org/1999/xlink"
   xmlns:sodipodi="http://sodipodi.sourceforge.net/DTD/sodipodi-0.dtd"
   xmlns:inkscape="http://www.inkscape.org/namespaces/inkscape"
   viewBox="0 0 64 64"
   id="svg2"
   version="1.1"
   inkscape:version="0.91 r13725"
   sodipodi:docname="folder-games.svg"
   width="64"
   height="64">
  <metadata
     id="metadata28">
    <rdf:RDF>
      <cc:Work
         rdf:about="">
        <dc:format>image/svg+xml</dc:format>
        <dc:type
           rdf:resource="http://purl.org/dc/dcmitype/StillImage" />
        <dc:title></dc:title>
      </cc:Work>
    </rdf:RDF>
  </metadata>
  <sodipodi:namedview
     pagecolor="#ffffff"
     bordercolor="#666666"
     borderopacity="1"
     objecttolerance="10"
     gridtolerance="10"
     guidetolerance="10"
     inkscape:pageopacity="0"
     inkscape:pageshadow="2"
     inkscape:window-width="1908"
     inkscape:window-height="1012"
     id="namedview26"
     showgrid="false"
     inkscape:zoom="4.9166667"
     inkscape:cx="-7.4237284"
     inkscape:cy="24.20339"
     inkscape:window-x="-13"
     inkscape:window-y="0"
     inkscape:window-maximized="0"
     inkscape:current-layer="svg2" />
  <defs
     id="defs4">
    <linearGradient
       id="3"
       x1="-67.120003"
       y1="44.929001"
       x2="-67.529999"
       y2="11.167"
       gradientUnits="userSpaceOnUse"
       gradientTransform="matrix(1.2203527,0,0,1.0690823,113.30309,5.3898043)">
      <stop
         stop-color="#197ff1"
         id="stop7" />
      <stop
         stop-color="#21c6fb"
         offset="1"
         id="stop9" />
    </linearGradient>
    <linearGradient
       gradientTransform="matrix(0.55597917,0,0,0.43377,-109.23981,22.010659)"
       gradientUnits="userSpaceOnUse"
       y2="-40.759998"
       x2="248.03999"
       y1="-6.2360001"
       x1="248.2"
       id="2"
       xlink:href="#1" />
    <linearGradient
       xlink:href="#1"
       id="0"
       x1="-67.059998"
       y1="22.419001"
       x2="-67.190002"
       y2="17.944"
       gradientUnits="userSpaceOnUse"
       gradientTransform="translate(90.51,-0.814)" />
    <linearGradient
       y2="517.77002"
       x2="400.70001"
       y1="546.07001"
       x1="400.51001"
       gradientUnits="userSpaceOnUse"
       id="1">
      <stop
         stop-color="#2e3e46"
         id="stop14" />
      <stop
         stop-color="#435a64"
         offset="1"
         id="stop16" />
    </linearGradient>
    <linearGradient
       gradientUnits="userSpaceOnUse"
       y2="416.19"
       x2="-659.32001"
       y1="588.27002"
       x1="-661.85999"
       id="3-3"
       xlink:href="#1"
       gradientTransform="matrix(0.12614,0,0,0.12614,115.46266,-27.653833)" />
    <linearGradient
       id="2-6"
       x1="-701.19"
       y1="647.77002"
       x2="-704.04999"
       y2="354.29001"
       gradientUnits="userSpaceOnUse"
       gradientTransform="matrix(0.0159113,0,0,0.0159113,106.11769,-105.8063)">
      <stop
         id="stop4168"
         stop-color="#93cfff" />
      <stop
         id="stop4170"
         stop-color="#cde8fe"
         offset="1" />
    </linearGradient>
    <linearGradient
       gradientTransform="matrix(0.52660675,0,0,0.52570737,-40.249033,-37.478171)"
       gradientUnits="userSpaceOnUse"
       y2="-37.783001"
       x2="59.150002"
       y1="-13.295"
       x1="59.119999"
       id="0-7"
       xlink:href="#1-5" />
    <linearGradient
       id="1-5">
      <stop
         id="stop4174"
         stop-color="#289bf7" />
      <stop
         id="stop4176"
         stop-color="#71b9f1"
         offset="1" />
    </linearGradient>
    <linearGradient
       gradientUnits="userSpaceOnUse"
       y2="1025.51"
       x2="-19.996"
       y1="1048.7"
       x1="-19.915"
       id="3-35"
       xlink:href="#1-5" />
    <linearGradient
       id="2-62"
       x1="-701.19"
       y1="647.77"
       x2="-704.05"
       y2="354.29"
       gradientUnits="userSpaceOnUse"
       gradientTransform="matrix(0.0159113,0,0,0.0159113,208.73004,-53.431242)">
      <stop
         id="stop4277"
         stop-color="#93cfff" />
      <stop
         id="stop4279"
         stop-color="#cde8fe"
         offset="1" />
    </linearGradient>
    <linearGradient
       gradientTransform="matrix(0.52660675,0,0,0.52570737,50.869613,9.0303042)"
       gradientUnits="userSpaceOnUse"
       y2="-37.783"
       x2="59.15"
       y1="-13.295"
       x1="59.12"
       id="0-9"
       xlink:href="#1-5" />
    <linearGradient
       gradientUnits="userSpaceOnUse"
       y2="1025.51"
       x2="-19.996"
       y1="1048.7"
       x1="-19.915001"
       id="3-2"
       xlink:href="#1"
       gradientTransform="translate(52.091593,-1001.2797)" />
    <linearGradient
       id="2-7"
       x1="-701.19"
       y1="647.77"
       x2="-704.05"
       y2="354.29"
       gradientUnits="userSpaceOnUse"
       gradientTransform="matrix(0.0159113,0,0,0.0159113,235.06068,-67.971199)">
      <stop
         id="stop4448"
         stop-color="#93cfff" />
      <stop
         id="stop4450"
         stop-color="#cde8fe"
         offset="1" />
    </linearGradient>
    <linearGradient
       gradientTransform="matrix(0.52660675,0,0,0.52570737,43.547573,-11.105338)"
       gradientUnits="userSpaceOnUse"
       y2="-37.783"
       x2="59.15"
       y1="-13.295"
       x1="59.12"
       id="0-0"
       xlink:href="#1-5" />
    <linearGradient
       gradientUnits="userSpaceOnUse"
       y2="290.14001"
       x2="-422.39001"
       y1="447.89001"
       x1="-423.69"
       id="3-36"
       xlink:href="#1"
       gradientTransform="matrix(0.12614,0,0,0.12614,85.647146,-10.562503)" />
    <linearGradient
       id="2-0"
       x1="-701.19"
       y1="647.77"
       x2="-704.05"
       y2="354.29"
       gradientUnits="userSpaceOnUse"
       gradientTransform="matrix(0.0159113,0,0,0.0159113,7.3991083,-66.257786)">
      <stop
         id="stop4535"
         stop-color="#93cfff" />
      <stop
         id="stop4537"
         stop-color="#cde8fe"
         offset="1" />
    </linearGradient>
    <linearGradient
       gradientTransform="matrix(0.52660675,0,0,0.52570737,-127.91005,-2.3595268)"
       gradientUnits="userSpaceOnUse"
       y2="-37.783"
       x2="59.15"
       y1="-13.295"
       x1="59.12"
       id="0-6"
       xlink:href="#1-5" />
    <linearGradient
       gradientUnits="userSpaceOnUse"
       y2="268.01001"
       x2="-429.69"
       y1="455.73999"
       x1="-429.17999"
       id="3-6"
       xlink:href="#1"
       gradientTransform="matrix(0.12614,0,0,0.12614,85.647461,-9.742639)" />
  </defs>
  <path
     inkscape:connector-curvature="0"
     style="color:#000000;fill:url(#2)"
     id="path20"
     d="m 4.3198612,9.224659 c -0.6154752,0 -1.1122422,0.387 -1.1122422,0.868 l 0,35.4 57.855949,0.104 0,-30.381 c 0,-0.481 -0.495477,-0.868 -1.112242,-0.868 l -27.02155,0 c -1.134178,0.078 -1.278691,-0.039 -1.838683,-0.622 -0.794828,-0.829 -1.99352,-3.062 -2.775445,-3.873 -0.627088,-0.708 -0.729021,-0.626 -1.770298,-0.626 z"
     sodipodi:insensitive="true" />
  <rect
     style="fill:url(#3)"
     id="rect22"
     width="58.573273"
     height="37.770679"
     x="2.8489571"
     y="17.141155"
     rx="2.0294466"
     sodipodi:insensitive="true" />
  <path
     inkscape:connector-curvature="0"
     d="m 46.914911,27.068797 c -4.34905,0 -8.04887,3.926738 -8.04887,8.767992 l 0,8.120893 c 0,1.041538 0.33011,1.218134 1.10537,0.676236 0.46621,-0.326072 0.89799,-0.511624 1.49854,-0.511624 0.53673,0 1.02047,0.14872 1.47546,0.412857 0.77059,0.445274 1.53298,0.449815 2.29449,0.0011 0.44805,-0.264894 0.95084,-0.41437 1.48694,-0.41437 0.53748,0 1.04305,0.148719 1.48832,0.412856 0.75634,0.450572 1.53576,0.443761 2.30836,0 0.45815,-0.264137 0.97658,-0.412856 1.51368,-0.412856 0.553,0 1.15557,0.157801 1.59,0.43922 0.72253,0.466339 1.33443,0.193246 1.33443,-0.849049 l 0,-7.87492 c 7.6e-4,-4.842515 -3.69842,-8.769253 -8.04684,-8.769253 z m -12.83979,11.024636 c 1.04167,0 1.88769,-0.820919 1.88769,-1.835589 0,-1.012904 -0.84464,-1.834833 -1.88769,-1.834833 -1.04166,0 -1.88705,0.82155 -1.88705,1.834833 0,1.014166 0.84463,1.835589 1.88705,1.835589 m -6.918778,0 c 1.041664,0 1.887685,-0.820919 1.887685,-1.835589 0,-1.012904 -0.844633,-1.834833 -1.887685,-1.834833 -1.041664,0 -1.887054,0.82155 -1.887054,1.834833 0,1.014166 0.844633,1.835589 1.887054,1.835589 m -8.789435,6.974281 c 1.791945,0 3.460777,-0.507083 4.867112,-1.381612 0.818522,-0.508344 0.824829,-1.596554 0.137997,-2.264213 l -3.760612,-3.659321 c -0.688346,-0.66829 -0.689103,-1.752085 0,-2.420627 l 4.065492,-3.954615 c 0.688346,-0.66892 0.708024,-1.781097 -0.08451,-2.327157 -1.476594,-1.01795 -3.27964,-1.615853 -5.227241,-1.615853 -5.00082,10e-4 -9.0555905,3.948182 -9.0555905,8.812897 0,4.865851 4.0554005,8.810249 9.0569775,8.810249"
     id="path4235"
     style="fill:url(#3-6);fill-opacity:1" />
</svg>
