<?xml version="1.0" encoding="UTF-8" standalone="no"?>
<svg
   xmlns:dc="http://purl.org/dc/elements/1.1/"
   xmlns:cc="http://creativecommons.org/ns#"
   xmlns:rdf="http://www.w3.org/1999/02/22-rdf-syntax-ns#"
   xmlns:svg="http://www.w3.org/2000/svg"
   xmlns="http://www.w3.org/2000/svg"
   xmlns:sodipodi="http://sodipodi.sourceforge.net/DTD/sodipodi-0.dtd"
   xmlns:inkscape="http://www.inkscape.org/namespaces/inkscape"
   viewBox="0 0 32 32"
   id="svg2"
   version="1.1"
   inkscape:version="0.91 r13725"
   sodipodi:docname="text-plain.svg">
  <metadata
     id="metadata19">
    <rdf:RDF>
      <cc:Work
         rdf:about="">
        <dc:format>image/svg+xml</dc:format>
        <dc:type
           rdf:resource="http://purl.org/dc/dcmitype/StillImage" />
      </cc:Work>
    </rdf:RDF>
  </metadata>
  <sodipodi:namedview
     pagecolor="#ffffff"
     bordercolor="#666666"
     borderopacity="1"
     objecttolerance="10"
     gridtolerance="10"
     guidetolerance="10"
     inkscape:pageopacity="0"
     inkscape:pageshadow="2"
     inkscape:window-width="1919"
     inkscape:window-height="1018"
     id="namedview17"
     showgrid="true"
     inkscape:zoom="20.85965"
     inkscape:cx="7.7339026"
     inkscape:cy="18.824149"
     inkscape:window-x="0"
     inkscape:window-y="0"
     inkscape:window-maximized="1"
     inkscape:current-layer="svg2">
    <inkscape:grid
       type="xygrid"
       id="grid4260" />
  </sodipodi:namedview>
  <defs
     id="defs4">
    <linearGradient
       id="0"
       x1="451.69"
       y1="556.79"
       x2="451.34"
       y2="528.79"
       gradientUnits="userSpaceOnUse"
       gradientTransform="translate(-435.34,-526.79)">
      <stop
         stop-color="#d1d7df"
         id="stop7" />
      <stop
         offset="1"
         stop-color="#e0e5e7"
         id="stop9" />
    </linearGradient>
    <linearGradient
       id="0-5"
       x1="451.69"
       y1="556.78998"
       x2="451.34"
       y2="528.78998"
       gradientUnits="userSpaceOnUse"
       gradientTransform="translate(-442.27494,-536.76073)">
      <stop
         stop-color="#d1d7df"
         id="stop7-6" />
      <stop
         offset="1"
         stop-color="#e0e5e7"
         id="stop9-2" />
    </linearGradient>
    <linearGradient
       id="0-2"
       x1="451.69"
       y1="556.78998"
       x2="451.34"
       y2="528.78998"
       gradientUnits="userSpaceOnUse"
       gradientTransform="translate(-435.32476,-526.79016)">
      <stop
         stop-color="#d1d7df"
         id="stop7-7" />
      <stop
         offset="1"
         stop-color="#e0e5e7"
         id="stop9-0" />
    </linearGradient>
    <linearGradient
       id="0-58"
       x1="451.69"
       y1="556.78998"
       x2="451.34"
       y2="528.78998"
       gradientUnits="userSpaceOnUse"
       gradientTransform="translate(-435.38319,-526.79266)">
      <stop
         stop-color="#d1d7df"
         id="stop7-8" />
      <stop
         offset="1"
         stop-color="#e0e5e7"
         id="stop9-4" />
    </linearGradient>
  </defs>
  <rect
     style="fill:url(#0);fill-rule:evenodd;stroke:#3d434a;stroke-width:0.5;stroke-linecap:round;stroke-miterlimit:4;stroke-dasharray:none"
     id="rect13"
     rx="1"
     y="1.1999903"
     x="4.7900047"
     height="29.671"
     width="22.410999" />
  <path
     style="fill:#3d434a;stroke:none;stroke-width:0.071;stroke-opacity:0.8"
     inkscape:connector-curvature="0"
     id="path15"
     d="m 15.82771,8.1531364 -4.458396,5.7066806 c -0.835737,1.069633 -0.601935,2.975818 0.467604,3.811522 1.070389,0.835704 2.975665,0.601775 3.812252,-0.467859 l 4.458396,-5.706688 0.556875,-0.713652 c 0.557725,-0.713648 0.40129,-1.9841556 -0.31202,-2.5410086 -0.713309,-0.557701 -1.984343,-0.400901 -2.541218,0.311906 l -0.557724,0.713654 -3.343798,4.2802196 -0.557724,0.713654 c -0.278863,0.356827 -0.200645,0.991657 0.155584,1.270507 0.35708,0.278851 0.992172,0.200875 1.271035,-0.155952 l 3.901521,-4.993029 0.71331,0.557696 -3.901522,4.993034 c -0.557725,0.713654 -1.827909,0.869606 -2.541218,0.311905 -0.713309,-0.557701 -0.869744,-1.828208 -0.31202,-2.541015 l 0.557725,-0.713653 3.901522,-4.9930266 c 0.835737,-1.069634 2.741863,-1.303563 3.812252,-0.467859 1.070389,0.835704 1.304191,2.7418866 0.468455,3.8115136 l -0.557725,0.713654 -4.458396,5.706689 c -1.1146,1.42646 -3.655817,1.738366 -5.082436,0.623812 -1.4266191,-1.114555 -1.7386389,-3.65557 -0.62404,-5.082878 l 4.458397,-5.7066796 0.713309,0.557701" />
  <path
     style="fill:#3d434a;fill-opacity:1;fill-rule:evenodd;stroke:#3d434a;stroke-width:0.30000001;stroke-linecap:round"
     d="m 4.790933,25.475237 22.383829,-0.05758 -0.01695,3.525424 0,0.925237 c 0,0.554 -0.446,1 -1,1 l -20.4109992,0 c -0.554,0 -1,-0.446 -1,-1 l 0.033898,-1.755745 z"
     id="rect13-5"
     inkscape:connector-curvature="0"
     sodipodi:nodetypes="cccsssscc" />
  <text
     xml:space="preserve"
     style="font-style:normal;font-weight:normal;font-size:22.5px;line-height:125%;font-family:sans-serif;letter-spacing:0px;word-spacing:0px;fill:#000000;fill-opacity:1;stroke:none;stroke-width:1px;stroke-linecap:butt;stroke-linejoin:miter;stroke-opacity:1"
     x="12.557844"
     y="30.001083"
     id="text4229"
     sodipodi:linespacing="125%"><tspan
       sodipodi:role="line"
       id="tspan4231"
       x="12.557844"
       y="30.001083"
       style="font-size:6.25px;fill:#fcfcfb;fill-opacity:1">txt</tspan></text>
</svg>
